# xmcd
#
# Track frame offsets:
#	180
#	27325
#	43987
#	64750
#	86274
#	101068
#	121613
#	143578
#	161718
#	183844
#	200189
#	220507
#	239726
#	260341
#	277148
#
# Disc length: 3946 seconds
#
# Revision: 2
# Processed by: cddbd v1.5.1PL2 Copyright (c) Steve Scherf et al.
# Submitted via: audiograbber 1.83.01
#
DISCID=db0f680f
DTITLE=Various Artist - SC-8111
DYEAR=1900
DGENRE=Karaoke
TTITLE0=Dion, Celine - Power Of Love
TTITLE1=Cure - Just Like Heaven
TTITLE2=Braxton, Toni - Breathe Again
TTITLE3=Cranberies - Linger
TTITLE4=Ace Of Base - Sign
TTITLE5=Houston, Whitney - Run To You
TTITLE6=Firehouse - Love Of A Lifetime
TTITLE7=Tag Team - Whoomp There It Is
TTITLE8=En Vogue - Free Your Mind
TTITLE9=Naughty By Nature - Hip Hop Hooray
TTITLE10=Adams, Oleta - Get Here
TTITLE11=Salt and Pepa - Shoop
TTITLE12=tone Loc - Wild Thing
TTITLE13=Marx, Richard - Now And Forever
TTITLE14=Cliff, Jimmy - I Can See Clearly Now
EXTD=
EXTT0=
EXTT1=
EXTT2=
EXTT3=
EXTT4=
EXTT5=
EXTT6=
EXTT7=
EXTT8=
EXTT9=
EXTT10=
EXTT11=
EXTT12=
EXTT13=
EXTT14=
PLAYORDER=
